<svg xmlns="http://www.w3.org/2000/svg" viewBox="0 0 1200 800">
  <defs>
    <style>
      .title { font: bold 24px sans-serif; fill: #333; }
      .label { font: 16px sans-serif; fill: #666; }
      .placeholder { font: italic 14px sans-serif; fill: #999; text-anchor: middle; }
    </style>
  </defs>
  
  <!-- Background -->
  <rect width="1200" height="800" fill="#f5f5f5"/>
  
  <!-- Title -->
  <text x="600" y="40" class="title" text-anchor="middle">Архитектура системы Rork-Kiku</text>
  
  <!-- Placeholder notice -->
  <text x="600" y="400" class="placeholder">Placeholder: Архитектурная диаграмма</text>
  <text x="600" y="425" class="placeholder">Располагается в docs/architecture/diag.svg</text>
  <text x="600" y="450" class="placeholder">Создайте детальную диаграму с использованием draw.io, Lucidchart или PlantUML</text>
  
  <!-- Example boxes showing structure -->
  <rect x="100" y="120" width="200" height="80" fill="#e3f2fd" stroke="#1976d2" stroke-width="2" rx="5"/>
  <text x="200" y="165" class="label" text-anchor="middle">Mobile App</text>
  
  <rect x="500" y="120" width="200" height="80" fill="#fff3e0" stroke="#f57c00" stroke-width="2" rx="5"/>
  <text x="600" y="165" class="label" text-anchor="middle">API Gateway</text>
  
  <rect x="900" y="120" width="200" height="80" fill="#e8f5e9" stroke="#388e3c" stroke-width="2" rx="5"/>
  <text x="1000" y="165" class="label" text-anchor="middle">Microservices</text>
  
  <rect x="300" y="500" width="200" height="80" fill="#fce4ec" stroke="#c2185b" stroke-width="2" rx="5"/>
  <text x="400" y="545" class="label" text-anchor="middle">ML Moderation</text>
  
  <rect x="700" y="500" width="200" height="80" fill="#f3e5f5" stroke="#7b1fa2" stroke-width="2" rx="5"/>
  <text x="800" y="545" class="label" text-anchor="middle">Storage &amp; DB</text>
  
  <!-- Arrows placeholder -->
  <line x1="300" y1="160" x2="500" y2="160" stroke="#666" stroke-width="2" marker-end="url(#arrowhead)"/>
  <line x1="700" y1="160" x2="900" y2="160" stroke="#666" stroke-width="2" marker-end="url(#arrowhead)"/>
  
  <defs>
    <marker id="arrowhead" markerWidth="10" markerHeight="10" refX="9" refY="3" orient="auto">
      <polygon points="0 0, 10 3, 0 6" fill="#666" />
    </marker>
  </defs>
  
  <!-- Note at bottom -->
  <text x="600" y="750" class="placeholder">Замените этот файл на реальную диаграмму архитектуры</text>
</svg>
